<svg width="31" height="25" viewBox="0 0 31 25" fill="none" xmlns="http://www.w3.org/2000/svg">
<g clip-path="url(#clip0)">
<path d="M30.1986 3.42249C29.1169 3.90214 27.9545 4.22631 26.7345 4.37215C27.9799 3.62574 28.9361 2.44377 29.3864 1.03546C28.2025 1.73799 26.9073 2.23297 25.5566 2.499C24.4564 1.32691 22.889 0.594391 21.1543 0.594391C17.8234 0.594391 15.1229 3.29479 15.1229 6.62539C15.1229 7.09816 15.1763 7.55841 15.2791 7.99994C10.2666 7.74834 5.82262 5.34731 2.84788 1.69839C2.32884 2.58915 2.03142 3.62528 2.03142 4.73043C2.03142 6.82291 3.09627 8.66884 4.71449 9.75044C3.75672 9.72045 2.82003 9.46177 1.98262 8.99599C1.98228 9.02126 1.98228 9.04652 1.98228 9.0719C1.98228 11.994 4.0612 14.4317 6.82017 14.9858C5.93204 15.2273 5.00045 15.2627 4.09657 15.0891C4.864 17.4852 7.09141 19.2288 9.73049 19.2776C7.66637 20.8952 5.06576 21.8594 2.24019 21.8594C1.7533 21.8594 1.2733 21.8308 0.801453 21.7751C3.47051 23.4864 6.64069 24.4848 10.0466 24.4848C21.1402 24.4848 27.2065 15.2947 27.2065 7.32484C27.2065 7.06325 27.2008 6.80315 27.1891 6.54455C28.3698 5.69098 29.3889 4.63376 30.1986 3.42249Z" fill="#55ACEE"/>
</g>
<defs>
<clipPath id="clip0">
<rect width="29.3971" height="24" fill="white" transform="translate(0.801453 0.5)"/>
</clipPath>
</defs>
</svg>
