<svg xmlns="http://www.w3.org/2000/svg" viewBox="0 0 1224.69 304.59"><defs><style>.cls-1{fill:#f26b38;}.cls-2{fill:#355c7d;}.cls-3{fill:#58a2cc;}.cls-4{fill:#457da3;}.cls-5{fill:#050505;}</style></defs><title>Asset 2</title><g id="Layer_2" data-name="Layer 2"><g id="Layer_1-2" data-name="Layer 1"><path class="cls-1" d="M202.16,177.78c4.46.79,9,1.45,13.5,1.93a199.46,199.46,0,0,0,27.47,1c4.6-.16,9.21-.45,13.81-.9,2.78-.28,5.55-.63,8.32-1-16.71-5.81-32.54-4.07-47.39-3.78a114.88,114.88,0,0,0-18.48,2.25C200.31,177.43,201.23,177.61,202.16,177.78Z"/><path class="cls-1" d="M304.37,208.49c-13.1-16.22-25.77-24.83-38-29.31-3,.82-6.1,1.61-9.18,2.32-4.54,1-9.14,1.91-13.76,2.67a206.8,206.8,0,0,1-28.09,2.54c-4.73.09-9.47,0-14.22-.24s-9.48-.69-14.19-1.26c-4-.48-7.91-1.08-11.84-1.75-30.54,9.68-65.93,27.84-80.25,55.53-22.5,43.5,32,57.5,32,57.5,83.5,16,169.5,5.5,188-7.5S335.87,247.49,304.37,208.49Z"/><path class="cls-2" d="M344.7,57.41a152.14,152.14,0,0,1-15.3,15.38,196.32,196.32,0,0,1-34.35,23.78q-9.23,5-18.83,9.22c-6.39,2.82-12.9,5.35-19.48,7.72a337.28,337.28,0,0,1-40.25,11.56,506.61,506.61,0,0,1-82.85,11.27q-20.88,1.2-41.81,1-5.22-.06-10.44-.19C115.84,158.69,157,175.8,196.85,181.5c77,11,153-28.5,171.5-60.5C381,99.09,363,74.35,344.7,57.41Z"/><path class="cls-3" d="M94.7,92.58A238.62,238.62,0,0,0,120.94,80.8,169.84,169.84,0,0,0,145,65.57,112.41,112.41,0,0,0,165.13,46a79.09,79.09,0,0,0,13-24,73.16,73.16,0,0,0,2.9-13.21c.11-1.12.31-2.23.35-3.36l.2-3.38c0-.61,0-1.21,0-1.81L177.75.14A641.75,641.75,0,0,0,67.49,7.33a229.87,229.87,0,0,0-28.1,5.86C15.16,20.12-8.57,33.49,3,60.62A61.39,61.39,0,0,0,7.85,69.5c8,12.43,19.74,25.4,34.18,37.94,8.5-1.56,16.9-3.58,25.21-5.87C76.54,99,85.72,96,94.7,92.58Z"/><path class="cls-4" d="M322.35,39.5C283.64,15.18,238.91,4.41,193.68,1.74c-.05.67-.09,1.34-.13,2l-.45,3.84c-.13,1.29-.41,2.56-.61,3.83a83.18,83.18,0,0,1-4.16,14.88,88.34,88.34,0,0,1-16,25.93,120.15,120.15,0,0,1-22.54,19.61,175.58,175.58,0,0,1-25.75,14.34A242.24,242.24,0,0,1,96.78,96.65c-9.27,2.95-18.67,5.43-28.15,7.5-8.42,1.82-16.9,3.36-25.42,4.44q7.4,6.41,15.67,12.62l2.62.24q5.09.45,10.19.8,10.2.7,20.45,1.07,20.48.71,41,.21,10.25-.27,20.48-.89c6.82-.41,13.63-.91,20.43-1.55,13.6-1.31,27.16-3.11,40.58-5.62,6.71-1.24,13.39-2.64,20-4.25s13.25-3.3,19.77-5.29,13-4.15,19.37-6.59,12.64-5.14,18.8-8.08a192,192,0,0,0,35-21.24A157.67,157.67,0,0,0,343,56.5c.2-.19.38-.39.58-.59A160.67,160.67,0,0,0,322.35,39.5Z"/><path class="cls-5" d="M509.72,166.57h-9.1a8.41,8.41,0,0,0-8.4,8.4h0a9.28,9.28,0,0,1-9.28,9.28H462.15a26,26,0,0,1-26-26.05v-9.8a26.05,26.05,0,0,1,26-26.06h20.79a9.29,9.29,0,0,1,9.28,9.28,8.4,8.4,0,0,0,8.4,8.4h9.1a8.41,8.41,0,0,0,8.41-8.4v-1.68a33.64,33.64,0,0,0-33.64-33.63h-22.7a52,52,0,0,0-52,52.07v9.83a52,52,0,0,0,52,52.08h22.7a33.64,33.64,0,0,0,33.64-33.63V175A8.41,8.41,0,0,0,509.72,166.57Z"/><path class="cls-5" d="M805.4,196.67a13.64,13.64,0,0,0,.1-1.57V185h0v-16.1h0V144.7h0V127.6A34.65,34.65,0,0,0,770.84,93H708.92a18.37,18.37,0,0,0-18.38,18.37h0v18.12a6,6,0,0,0,6,6h12.67a6,6,0,0,0,6-6v-5.36a7,7,0,0,1,7-7h46.48a12.63,12.63,0,0,1,12.63,12.63v6a9,9,0,0,1-9,9l-54.27,0A27.27,27.27,0,0,0,690.78,172l0,12.93h-.1a24.15,24.15,0,0,0,24.15,24.15h63.42a4.86,4.86,0,0,0,4.83,4.55h17.54a4.86,4.86,0,0,0,4.86-4.86V197.68A4.74,4.74,0,0,0,805.4,196.67ZM721.89,185A6.94,6.94,0,0,1,715,178v-2.23a6.94,6.94,0,0,1,6.94-6.93h52.53a6.93,6.93,0,0,1,6.93,6.93V178a6.94,6.94,0,0,1-6.93,6.94Z"/><path class="cls-5" d="M619.58,101H599a67.44,67.44,0,0,0-40.55,13.46V105a7.44,7.44,0,0,0-7.44-7.43H538.67a7.44,7.44,0,0,0-7.44,7.43v96.55a7.44,7.44,0,0,0,7.44,7.44h12.38a7.44,7.44,0,0,0,7.44-7.44V175a46.68,46.68,0,0,1,46.68-46.68h14.41a7.21,7.21,0,0,0,7.21-7.21V108.25A7.21,7.21,0,0,0,619.58,101Z"/><path class="cls-5" d="M1109.73,159.62h0v17.1a34.65,34.65,0,0,0,34.66,34.65h61.92A18.36,18.36,0,0,0,1224.68,193h0V174.88a6,6,0,0,0-6-6H1206a6,6,0,0,0-6,6v5.36a7,7,0,0,1-7,7H1146.5a12.63,12.63,0,0,1-12.62-12.63v-6a9,9,0,0,1,9-9l54.27,0a27.27,27.27,0,0,0,27.29-27.34l0-12.93h.1a24.15,24.15,0,0,0-24.15-24.15h-64.9A25.74,25.74,0,0,0,1109.73,121Zm31.08-40.25h52.53a6.94,6.94,0,0,1,6.93,6.94v2.23a6.93,6.93,0,0,1-6.93,6.93h-52.53a6.94,6.94,0,0,1-6.94-6.93v-2.23A6.94,6.94,0,0,1,1140.81,119.37Z"/><path class="cls-5" d="M1065,97.34h-2.54c-16.11,0-29.29,5.83-39.08,15.39a21.09,21.09,0,0,0-20.29-15.39H997c-12.76,0-23.68,3.67-32.54,9.93v-2.74a7.19,7.19,0,0,0-7.2-7.19H944.35a7.19,7.19,0,0,0-7.2,7.19v96.6a8.13,8.13,0,0,0,8.13,8.13h11a8.13,8.13,0,0,0,8.14-8.13V160.29c0-13.89,8.07-26.75,20.89-32.1l.57-.23A8.09,8.09,0,0,1,997,135.48v66.21a7.57,7.57,0,0,0,7.57,7.57h11.29a8.4,8.4,0,0,0,8.39-8.4V169.11c0-17.9,10.53-34.41,27.13-41.12.68-.27,1.37-.54,2.07-.78a6.89,6.89,0,0,1,9.09,6.55v67.1a8.4,8.4,0,0,0,8.4,8.4h10.46a8.4,8.4,0,0,0,8.4-8.4v-78.8A24.72,24.72,0,0,0,1065,97.34Z"/><path class="cls-5" d="M911.85,101H891.31a67.44,67.44,0,0,0-40.55,13.46V105a7.44,7.44,0,0,0-7.44-7.43H830.94A7.44,7.44,0,0,0,823.5,105v96.55a7.44,7.44,0,0,0,7.44,7.44h12.38a7.44,7.44,0,0,0,7.44-7.44V175a46.68,46.68,0,0,1,46.68-46.68h14.41a7.21,7.21,0,0,0,7.21-7.21V108.25A7.21,7.21,0,0,0,911.85,101Z"/><path class="cls-5" d="M658.5,130.23a48.88,48.88,0,0,1-14.68,3.29v74.26h28.33V122.41c-1,.79-2.07,1.54-3.1,2.24A51.68,51.68,0,0,1,658.5,130.23Z"/><path class="cls-1" d="M649.62,125.91a44.33,44.33,0,0,0,14.8-3.49,47.19,47.19,0,0,0,5.13-2.49c.86-.49,1.73-1,2.6-1.57V98.81H643.82v27.05c.35,0,.7,0,1.06.06C646.44,126,648,126,649.62,125.91Z"/></g></g></svg>